<?xml version="1.0" encoding="UTF-8"?>
<!DOCTYPE svg PUBLIC "-//W3C//DTD SVG 1.1//EN" "http://www.w3.org/Graphics/SVG/1.1/DTD/svg11.dtd"> 
<svg
   xmlns:svg="http://www.w3.org/2000/svg"
   xmlns="http://www.w3.org/2000/svg"
   xmlns:xlink="http://www.w3.org/1999/xlink"
   viewBox="0 0 240 240"
   id="meanings.farm_logo"
>
   <defs>
      <g id="lV">
         <path
            d="m 80,120 40,0 -20,-34"
            style="fill:none; stroke-width:15; stroke:black;"
            stroke-linecap="round"
            transform="rotate(60 120 120) translate(90 52)"
         />
      </g>

      <g id="lO" transform="rotate(30 120 120)">
         <circle cx="120" cy="120" r="10"
            transform="translate(0 -100)"
            style="fill:none; stroke-width:10; stroke:black;"
         >
         </circle>
      </g>
   </defs>
   <g>
      <!-- transform="rotate(11.25   240 240)" -->
      <!-- <animateTransform
         attributeName="transform"
         begin="0s"
         dur="360s"
         type="rotate"
         from="11.25 240 240"
         to="371.25 240 240"
         repeatCount="indefinite"
      /> -->

      <use xlink:href="#lV" transform="rotate(0    120 120)" />
      <use xlink:href="#lV" transform="rotate(60   120 120)" />
      <use xlink:href="#lV" transform="rotate(120  120 120)" />
      <use xlink:href="#lV" transform="rotate(180  120 120)" />
      <use xlink:href="#lV" transform="rotate(240  120 120)" />
      <use xlink:href="#lV" transform="rotate(300  120 120)" />

      <use xlink:href="#lO" transform="rotate(0    120 120)" />
      <use xlink:href="#lO" transform="rotate(60   120 120)" />
      <use xlink:href="#lO" transform="rotate(120  120 120)" />
      <use xlink:href="#lO" transform="rotate(180  120 120)" />
      <use xlink:href="#lO" transform="rotate(240  120 120)" />
      <use xlink:href="#lO" transform="rotate(300  120 120)" />

      <circle cx="120" cy="120" r="30" style="fill:#770000;"/>
   </g>
</svg>
